<mxfile host="app.diagrams.net" agent="Mozilla/5.0 (Windows NT 10.0; Win64; x64) AppleWebKit/537.36 (KHTML, like Gecko) Chrome/136.0.0.0 Safari/537.36" version="27.0.5">
  <diagram name="PÃ¡gina-1" id="LvTM7hUMkNFG88U-1tMO">
    <mxGraphModel grid="1" page="1" gridSize="10" guides="1" tooltips="1" connect="1" arrows="1" fold="1" pageScale="1" pageWidth="827" pageHeight="1169" math="0" shadow="0">
      <root>
        <mxCell id="0" />
        <mxCell id="1" parent="0" />
        <mxCell id="dz7NpgIh8QfnOfa9CY9b-1" value="Jugador" style="shape=umlActor;verticalLabelPosition=bottom;verticalAlign=top;html=1;outlineConnect=0;" vertex="1" parent="1">
          <mxGeometry x="120" y="240" width="30" height="60" as="geometry" />
        </mxCell>
        <mxCell id="dz7NpgIh8QfnOfa9CY9b-25" style="edgeStyle=orthogonalEdgeStyle;rounded=0;orthogonalLoop=1;jettySize=auto;html=1;exitX=0.5;exitY=1;exitDx=0;exitDy=0;entryX=0.5;entryY=0;entryDx=0;entryDy=0;" edge="1" parent="1" source="dz7NpgIh8QfnOfa9CY9b-4" target="dz7NpgIh8QfnOfa9CY9b-23">
          <mxGeometry relative="1" as="geometry" />
        </mxCell>
        <mxCell id="dz7NpgIh8QfnOfa9CY9b-4" value="Iniciar juego" style="ellipse;whiteSpace=wrap;html=1;" vertex="1" parent="1">
          <mxGeometry x="250" y="230" width="80" height="50" as="geometry" />
        </mxCell>
        <mxCell id="dz7NpgIh8QfnOfa9CY9b-10" style="edgeStyle=orthogonalEdgeStyle;rounded=0;orthogonalLoop=1;jettySize=auto;html=1;exitX=1;exitY=0.3333333333333333;exitDx=0;exitDy=0;exitPerimeter=0;entryX=0.006;entryY=0.592;entryDx=0;entryDy=0;entryPerimeter=0;" edge="1" parent="1" source="dz7NpgIh8QfnOfa9CY9b-1" target="dz7NpgIh8QfnOfa9CY9b-4">
          <mxGeometry relative="1" as="geometry" />
        </mxCell>
        <mxCell id="2Enujm8ikF5ziBrE6Qi4-2" style="edgeStyle=orthogonalEdgeStyle;rounded=0;orthogonalLoop=1;jettySize=auto;html=1;exitX=1;exitY=0.5;exitDx=0;exitDy=0;" edge="1" parent="1" source="dz7NpgIh8QfnOfa9CY9b-11" target="dz7NpgIh8QfnOfa9CY9b-13">
          <mxGeometry relative="1" as="geometry" />
        </mxCell>
        <mxCell id="dz7NpgIh8QfnOfa9CY9b-11" value="Pierde el juego" style="ellipse;whiteSpace=wrap;html=1;" vertex="1" parent="1">
          <mxGeometry x="480" y="220" width="90" height="50" as="geometry" />
        </mxCell>
        <mxCell id="2Enujm8ikF5ziBrE6Qi4-11" style="edgeStyle=orthogonalEdgeStyle;rounded=0;orthogonalLoop=1;jettySize=auto;html=1;exitX=0.5;exitY=0;exitDx=0;exitDy=0;entryX=0.5;entryY=1;entryDx=0;entryDy=0;" edge="1" parent="1" source="dz7NpgIh8QfnOfa9CY9b-13" target="dz7NpgIh8QfnOfa9CY9b-16">
          <mxGeometry relative="1" as="geometry">
            <Array as="points">
              <mxPoint x="709" y="160" />
              <mxPoint x="613" y="160" />
            </Array>
          </mxGeometry>
        </mxCell>
        <mxCell id="2Enujm8ikF5ziBrE6Qi4-13" style="edgeStyle=orthogonalEdgeStyle;rounded=0;orthogonalLoop=1;jettySize=auto;html=1;exitX=0.5;exitY=0;exitDx=0;exitDy=0;entryX=0.5;entryY=1;entryDx=0;entryDy=0;" edge="1" parent="1" source="dz7NpgIh8QfnOfa9CY9b-13" target="dz7NpgIh8QfnOfa9CY9b-20">
          <mxGeometry relative="1" as="geometry" />
        </mxCell>
        <mxCell id="2Enujm8ikF5ziBrE6Qi4-26" style="edgeStyle=orthogonalEdgeStyle;rounded=0;orthogonalLoop=1;jettySize=auto;html=1;exitX=1;exitY=0;exitDx=0;exitDy=0;entryX=0;entryY=0.5;entryDx=0;entryDy=0;" edge="1" parent="1" source="dz7NpgIh8QfnOfa9CY9b-13" target="2Enujm8ikF5ziBrE6Qi4-24">
          <mxGeometry relative="1" as="geometry">
            <Array as="points">
              <mxPoint x="750" y="190" />
              <mxPoint x="970" y="190" />
            </Array>
          </mxGeometry>
        </mxCell>
        <mxCell id="2Enujm8ikF5ziBrE6Qi4-27" style="edgeStyle=orthogonalEdgeStyle;rounded=0;orthogonalLoop=1;jettySize=auto;html=1;exitX=1;exitY=1;exitDx=0;exitDy=0;entryX=0;entryY=0.5;entryDx=0;entryDy=0;" edge="1" parent="1" source="dz7NpgIh8QfnOfa9CY9b-13" target="2Enujm8ikF5ziBrE6Qi4-25">
          <mxGeometry relative="1" as="geometry">
            <Array as="points">
              <mxPoint x="730" y="263" />
              <mxPoint x="730" y="330" />
              <mxPoint x="940" y="330" />
            </Array>
          </mxGeometry>
        </mxCell>
        <mxCell id="dz7NpgIh8QfnOfa9CY9b-13" value="Sistema guarda el score" style="ellipse;whiteSpace=wrap;html=1;" vertex="1" parent="1">
          <mxGeometry x="650" y="220" width="117.5" height="50" as="geometry" />
        </mxCell>
        <mxCell id="dz7NpgIh8QfnOfa9CY9b-15" style="edgeStyle=orthogonalEdgeStyle;rounded=0;orthogonalLoop=1;jettySize=auto;html=1;exitX=1;exitY=0.5;exitDx=0;exitDy=0;entryX=0.066;entryY=0.702;entryDx=0;entryDy=0;entryPerimeter=0;" edge="1" parent="1" source="dz7NpgIh8QfnOfa9CY9b-4" target="dz7NpgIh8QfnOfa9CY9b-11">
          <mxGeometry relative="1" as="geometry" />
        </mxCell>
        <mxCell id="2Enujm8ikF5ziBrE6Qi4-14" style="edgeStyle=orthogonalEdgeStyle;rounded=0;orthogonalLoop=1;jettySize=auto;html=1;exitX=0;exitY=0.5;exitDx=0;exitDy=0;entryX=0.5;entryY=0;entryDx=0;entryDy=0;" edge="1" parent="1" source="dz7NpgIh8QfnOfa9CY9b-16" target="dz7NpgIh8QfnOfa9CY9b-4">
          <mxGeometry relative="1" as="geometry" />
        </mxCell>
        <mxCell id="dz7NpgIh8QfnOfa9CY9b-16" value="Jugador reinicia el juego" style="ellipse;whiteSpace=wrap;html=1;" vertex="1" parent="1">
          <mxGeometry x="560" y="50" width="105" height="55" as="geometry" />
        </mxCell>
        <mxCell id="2Enujm8ikF5ziBrE6Qi4-18" style="edgeStyle=orthogonalEdgeStyle;rounded=0;orthogonalLoop=1;jettySize=auto;html=1;exitX=1;exitY=0.5;exitDx=0;exitDy=0;" edge="1" parent="1" source="dz7NpgIh8QfnOfa9CY9b-20" target="2Enujm8ikF5ziBrE6Qi4-17">
          <mxGeometry relative="1" as="geometry" />
        </mxCell>
        <mxCell id="dz7NpgIh8QfnOfa9CY9b-20" value="Jugador no reinicia el juego" style="ellipse;whiteSpace=wrap;html=1;" vertex="1" parent="1">
          <mxGeometry x="760" y="47.5" width="110" height="57.5" as="geometry" />
        </mxCell>
        <mxCell id="2Enujm8ikF5ziBrE6Qi4-10" style="edgeStyle=orthogonalEdgeStyle;rounded=0;orthogonalLoop=1;jettySize=auto;html=1;exitX=1;exitY=0.5;exitDx=0;exitDy=0;entryX=0.5;entryY=1;entryDx=0;entryDy=0;" edge="1" parent="1" source="dz7NpgIh8QfnOfa9CY9b-23" target="dz7NpgIh8QfnOfa9CY9b-13">
          <mxGeometry relative="1" as="geometry" />
        </mxCell>
        <mxCell id="dz7NpgIh8QfnOfa9CY9b-23" value="Gana el juego" style="ellipse;whiteSpace=wrap;html=1;" vertex="1" parent="1">
          <mxGeometry x="245" y="380" width="90" height="50" as="geometry" />
        </mxCell>
        <mxCell id="2Enujm8ikF5ziBrE6Qi4-17" value="El juego se acaba" style="ellipse;whiteSpace=wrap;html=1;" vertex="1" parent="1">
          <mxGeometry x="930" y="48.75" width="100" height="55" as="geometry" />
        </mxCell>
        <mxCell id="2Enujm8ikF5ziBrE6Qi4-29" style="edgeStyle=orthogonalEdgeStyle;rounded=0;orthogonalLoop=1;jettySize=auto;html=1;exitX=0;exitY=0.3333333333333333;exitDx=0;exitDy=0;exitPerimeter=0;" edge="1" parent="1" source="2Enujm8ikF5ziBrE6Qi4-19" target="2Enujm8ikF5ziBrE6Qi4-28">
          <mxGeometry relative="1" as="geometry" />
        </mxCell>
        <mxCell id="2Enujm8ikF5ziBrE6Qi4-19" value="Sistema" style="shape=umlActor;verticalLabelPosition=bottom;verticalAlign=top;html=1;outlineConnect=0;" vertex="1" parent="1">
          <mxGeometry x="1410" y="225" width="30" height="60" as="geometry" />
        </mxCell>
        <mxCell id="2Enujm8ikF5ziBrE6Qi4-30" style="edgeStyle=orthogonalEdgeStyle;rounded=0;orthogonalLoop=1;jettySize=auto;html=1;exitX=1;exitY=0.5;exitDx=0;exitDy=0;entryX=0;entryY=0;entryDx=0;entryDy=0;" edge="1" parent="1" source="2Enujm8ikF5ziBrE6Qi4-24" target="2Enujm8ikF5ziBrE6Qi4-28">
          <mxGeometry relative="1" as="geometry">
            <Array as="points">
              <mxPoint x="1230" y="180" />
              <mxPoint x="1230" y="217" />
            </Array>
          </mxGeometry>
        </mxCell>
        <mxCell id="2Enujm8ikF5ziBrE6Qi4-24" value="Almacena la informacion en Mongodb" style="ellipse;whiteSpace=wrap;html=1;" vertex="1" parent="1">
          <mxGeometry x="970" y="140" width="120" height="80" as="geometry" />
        </mxCell>
        <mxCell id="2Enujm8ikF5ziBrE6Qi4-25" value="Almacena la informacion en Php" style="ellipse;whiteSpace=wrap;html=1;" vertex="1" parent="1">
          <mxGeometry x="970" y="290" width="120" height="80" as="geometry" />
        </mxCell>
        <mxCell id="2Enujm8ikF5ziBrE6Qi4-28" value="Acede a la informacion almacenada&amp;nbsp;" style="ellipse;whiteSpace=wrap;html=1;" vertex="1" parent="1">
          <mxGeometry x="1210" y="205" width="120" height="80" as="geometry" />
        </mxCell>
        <mxCell id="2Enujm8ikF5ziBrE6Qi4-32" style="edgeStyle=orthogonalEdgeStyle;rounded=0;orthogonalLoop=1;jettySize=auto;html=1;exitX=1;exitY=0.5;exitDx=0;exitDy=0;entryX=0.259;entryY=0.954;entryDx=0;entryDy=0;entryPerimeter=0;" edge="1" parent="1" source="2Enujm8ikF5ziBrE6Qi4-25" target="2Enujm8ikF5ziBrE6Qi4-28">
          <mxGeometry relative="1" as="geometry">
            <Array as="points">
              <mxPoint x="1230" y="330" />
              <mxPoint x="1230" y="281" />
            </Array>
          </mxGeometry>
        </mxCell>
      </root>
    </mxGraphModel>
  </diagram>
</mxfile>
